<?xml version="1.0" encoding="utf-8"?>
<!-- Generator: Adobe Illustrator 22.0.1, SVG Export Plug-In . SVG Version: 6.00 Build 0)  -->
<svg version="1.1" id="Layer_1" xmlns="http://www.w3.org/2000/svg" xmlns:xlink="http://www.w3.org/1999/xlink" x="0px" y="0px"
	 viewBox="0 0 141.732 50.206" style="enable-background:new 0 0 141.732 50.206;" xml:space="preserve">
<style type="text/css">
	.st0{fill:#0083C1;}
</style>
<g>
	<path class="st0" d="M8.038,28.784l3.647-3.647L8.038,21.49V28.784 M9.198,25.983V24.29l0.847,0.847L9.198,25.983z M23.773,26.167
		c0.431,0.431,1,0.669,1.602,0.669c1.257,0,2.28-1.021,2.28-2.276v-9.85c0-1.264-1.029-2.295-2.293-2.297l-9.896-0.021h-0.005
		c0,0,0,0,0,0c-0.916,0-1.735,0.547-2.086,1.394s-0.159,1.813,0.489,2.461l2.427,2.428l-1.354,1.354l-6.551-6.551
		c-0.68-0.68-1.585-1.055-2.547-1.055c-1.986,0-3.601,1.615-3.601,3.601v18.184c0,1.987,1.617,3.605,3.605,3.605
		c0.965,0,1.872-0.375,2.553-1.056l6.541-6.542l6.556,6.556c0.672,0.672,1.565,1.042,2.515,1.042h0.091
		c1.961,0,3.557-1.596,3.557-3.557v-0.047c0-0.951-0.371-1.845-1.044-2.518l-6.58-6.569l1.35-1.35L23.773,26.167z M15.461,13.719
		l0.002,0.179l9.896,0.021c0.435,0.001,0.789,0.356,0.789,0.791v9.85c0,0.481-0.394,0.769-0.774,0.769
		c-0.141,0-0.349-0.039-0.536-0.227l-3.458-3.462l-3.482,3.482l7.648,7.634c0.388,0.387,0.602,0.903,0.602,1.451v0.047
		c0,1.131-0.92,2.051-2.051,2.051h-0.091c-0.548,0-1.063-0.213-1.45-0.6l-7.621-7.621l-7.607,7.607
		c-0.396,0.396-0.923,0.614-1.488,0.614c-1.157,0-2.098-0.941-2.098-2.098V16.025c0-1.155,0.94-2.095,2.095-2.095
		c0.56,0,1.086,0.218,1.481,0.614l7.616,7.616l3.485-3.485l-3.492-3.493c-0.262-0.262-0.256-0.595-0.163-0.819
		c0.093-0.224,0.324-0.464,0.694-0.464V13.719L15.461,13.719z"/>
	<g>
		<g>
			<path class="st0" d="M59.092,24.388l-0.01-7.242h3.303v-1.794h-3.303l0.01-3.188h-0.467c-0.685,0-1.25,0.481-1.292,1.083
				l-0.004,0.003v11.541c0,2.355,1.068,3.533,3.203,3.533h1.236v-1.783h-1.137C59.604,26.539,59.092,25.611,59.092,24.388"/>
			<path class="st0" d="M121.858,12.118h-0.484c-0.714,0-1.298,0.485-1.343,1.092l-0.003,0.003v11.647
				c0,2.377,1.109,3.565,3.325,3.565h1.283v-1.799h-1.178c-1.067,0-1.599-0.937-1.599-2.17v-7.319h3.428v-1.811h-3.428V12.118z"/>
			<path class="st0" d="M86.724,15.352h-2.403c-2.231,0-3.344,1.196-3.344,3.584v9.411h1.807v-9.326
				c0-1.241,0.536-1.861,1.609-1.861h2.331V15.352z"/>
			<path class="st0" d="M99.952,13.32v2.013h-3.429c-3.568,0.16-6.409,3.024-6.409,6.525s2.841,6.381,6.409,6.54h5.315V12.142
				h-0.482C100.584,12.142,99.952,12.672,99.952,13.32 M99.952,26.579h-3.113c-2.537,0-4.85-2.258-4.85-4.72
				c0-2.463,2.312-4.678,4.85-4.678h3.113V26.579z"/>
			<path class="st0" d="M134.319,15.389c-3.262,0-6.24,3.035-6.24,6.549c0,3.514,2.767,6.404,6.24,6.563h5.176V15.389H134.319z
				 M137.661,26.675h-3.032c-2.471,0-4.724-2.267-4.724-4.737c0-2.472,2.253-4.695,4.724-4.695h3.032V26.675z"/>
			<path class="st0" d="M40.831,15.35c-3.214,0-6.147,2.99-6.147,6.451c0,3.461,2.726,6.309,6.147,6.466h5.099V15.35H40.831z
				 M44.123,26.468h-2.987c-2.434,0-4.653-2.233-4.653-4.667c0-2.435,2.219-4.625,4.653-4.625h2.987V26.468z"/>
			<path class="st0" d="M71.384,15.387c-3.415,0-6.179,2.91-6.179,6.499c0,3.577,2.745,6.477,6.141,6.498v-0.001h4.565v-1.79h-4.565
				c-2.263-0.019-4.12-1.793-4.399-4.097h10.581c0.017-0.2,0.028-0.404,0.028-0.61C77.556,18.296,74.792,15.387,71.384,15.387
				 M67.056,20.695c0.503-2.023,2.246-3.518,4.327-3.518c2.078,0,3.821,1.495,4.324,3.518H67.056z"/>
			<path class="st0" d="M51.167,24.812V12.169h-0.626c-0.639,0-1.167,0.435-1.207,0.983l-0.004,0.001v11.956
				c0,2.138,0.997,3.206,2.992,3.206h1.592V26.48h-1.309C51.647,26.48,51.167,25.924,51.167,24.812"/>
			<path class="st0" d="M105.222,21.894c0,3.503,2.759,6.384,6.221,6.543h5.161V15.365h-5.161
				C108.191,15.365,105.222,18.391,105.222,21.894 M114.774,17.214v9.402h-3.023c-2.463,0-4.709-2.259-4.709-4.722
				c0-2.464,2.246-4.68,4.709-4.68H114.774z"/>
		</g>
		<g>
			<path class="st0" d="M79.692,33.01H79.54c-0.222,0-0.404,0.15-0.418,0.34l-0.001,0.001v3.626c0,0.741,0.346,1.112,1.036,1.112
				h0.399v-0.561H80.19c-0.333,0-0.498-0.293-0.498-0.676v-2.217h1.065V34.07h-1.065V33.01z"/>
			<path class="st0" d="M106.578,34.068c-1.066,0.05-1.914,0.929-1.914,2.007c0,1.076,0.849,1.956,1.914,2.007v0.002l1.585,0.005
				v-4.022h-1.585V34.068z M107.601,34.635v2.893h-0.929c-0.758,0-1.449-0.695-1.449-1.453c0-0.758,0.69-1.44,1.449-1.44H107.601z"
				/>
			<path class="st0" d="M130.485,34.021c-1.1,0-1.988,0.91-1.988,2.034c0,1.118,0.883,2.027,1.975,2.034h1.469v-0.562h-1.469
				c-0.727-0.005-1.326-0.563-1.415-1.283l3.406,0.003c0.005-0.064,0.007-0.126,0.007-0.191
				C132.47,34.931,131.581,34.021,130.485,34.021z M129.092,35.681c0.161-0.633,0.721-1.1,1.39-1.1c0.67,0,1.232,0.468,1.392,1.1
				H129.092z"/>
			<path class="st0" d="M93.911,37.534l-0.888-3.468h-0.315c-0.169,0-0.32,0.094-0.37,0.239l-0.838,3.228l-0.898-3.468h-0.567
				l1.028,4.022h0.871h0.003l0.765-3.091l0.767,3.091h0.008h0.871l1.038-4.022h-0.576L93.911,37.534z"/>
			<path class="st0" d="M56.495,33.996c-1.102,0-1.995,0.916-1.995,2.045c0,1.13,0.893,2.048,1.995,2.048
				c1.101,0,1.995-0.918,1.995-2.048C58.491,34.911,57.596,33.996,56.495,33.996z M56.495,37.518c-0.796,0-1.441-0.66-1.441-1.477
				c0-0.815,0.646-1.476,1.441-1.476c0.795,0,1.44,0.661,1.44,1.476C57.936,36.858,57.291,37.518,56.495,37.518z"/>
			<path class="st0" d="M117.44,35.147v2.941h0.559v-2.915c0-0.383,0.167-0.576,0.498-0.576h0.722v-0.559h-0.744
				C117.785,34.038,117.44,34.408,117.44,35.147z"/>
			<path class="st0" d="M67.768,34.119v3.969h0.559v-2.894h1.088v-0.56h-1.088v-0.488c0-0.385,0.167-0.575,0.499-0.575h1.019V33.01
				h-1.041C68.113,33.01,67.768,33.379,67.768,34.119z"/>
			<path class="st0" d="M44.172,35.76l-1.39,0.002c-0.31,0-0.477-0.152-0.502-0.481c-0.002-0.028-0.002-0.185,0-0.205
				c0.019-0.343,0.186-0.504,0.503-0.504h2.125v-0.568h-2.148c-0.677,0-1.026,0.365-1.049,1.068c-0.001,0.012-0.001,0.181,0,0.205
				c0.027,0.695,0.376,1.053,1.049,1.053l1.389-0.002c0.338,0,0.507,0.182,0.507,0.572v0.045c0,0.39-0.168,0.572-0.507,0.572h-2.202
				v0.57h2.226c0.699,0,1.048-0.387,1.052-1.133v-0.063C45.221,36.147,44.87,35.76,44.172,35.76z"/>
		</g>
	</g>
</g>
</svg>
